<svg xmlns="http://www.w3.org/2000/svg" width="1600" height="980" viewBox="0 0 1600 980" role="img" aria-labelledby="title desc">
	<title id="title">How NINJAMplus coordinates NINJAM audio and VDO.Ninja chunked video</title>
	<desc id="desc">A two-lane architecture diagram. NINJAM carries interval-aligned music, while a local helper synchronizes VDO.Ninja chunked video to the NINJAM clock. Chunk indexing, pacing, retransmission, and adaptive bitrate, frame rate, and resolution keep video moving on weak uplinks.</desc>
	<defs>
		<linearGradient id="bg" x1="0" y1="0" x2="1" y2="1">
			<stop offset="0" stop-color="#09111f"/>
			<stop offset="0.52" stop-color="#11182b"/>
			<stop offset="1" stop-color="#17132b"/>
		</linearGradient>
		<linearGradient id="audioGlow" x1="0" y1="0" x2="1" y2="0">
			<stop offset="0" stop-color="#2dd4bf"/>
			<stop offset="1" stop-color="#67e8f9"/>
		</linearGradient>
		<linearGradient id="videoGlow" x1="0" y1="0" x2="1" y2="0">
			<stop offset="0" stop-color="#a78bfa"/>
			<stop offset="1" stop-color="#f472b6"/>
		</linearGradient>
		<filter id="shadow" x="-20%" y="-20%" width="140%" height="140%">
			<feDropShadow dx="0" dy="10" stdDeviation="14" flood-color="#000814" flood-opacity="0.46"/>
		</filter>
		<filter id="softGlow" x="-80%" y="-80%" width="260%" height="260%">
			<feGaussianBlur stdDeviation="6" result="blur"/>
			<feMerge><feMergeNode in="blur"/><feMergeNode in="SourceGraphic"/></feMerge>
		</filter>
		<marker id="arrowAudio" viewBox="0 0 10 10" refX="9" refY="5" markerWidth="8" markerHeight="8" orient="auto-start-reverse">
			<path d="M 0 0 L 10 5 L 0 10 z" fill="#5eead4"/>
		</marker>
		<marker id="arrowVideo" viewBox="0 0 10 10" refX="9" refY="5" markerWidth="8" markerHeight="8" orient="auto-start-reverse">
			<path d="M 0 0 L 10 5 L 0 10 z" fill="#c4b5fd"/>
		</marker>
		<marker id="arrowSync" viewBox="0 0 10 10" refX="9" refY="5" markerWidth="7" markerHeight="7" orient="auto-start-reverse">
			<path d="M 0 0 L 10 5 L 0 10 z" fill="#fbbf24"/>
		</marker>
		<style>
			.title { font: 700 46px Inter, Segoe UI, Arial, sans-serif; fill: #f8fafc; letter-spacing: -1px; }
			.subtitle { font: 500 20px Inter, Segoe UI, Arial, sans-serif; fill: #a8b2c7; }
			.lane { font: 800 16px Inter, Segoe UI, Arial, sans-serif; letter-spacing: 2.4px; }
			.cardTitle { font: 700 23px Inter, Segoe UI, Arial, sans-serif; fill: #f8fafc; }
			.cardText { font: 500 16px Inter, Segoe UI, Arial, sans-serif; fill: #aeb9cc; }
			.small { font: 600 14px Inter, Segoe UI, Arial, sans-serif; fill: #cbd5e1; }
			.micro { font: 600 12px Inter, Segoe UI, Arial, sans-serif; fill: #94a3b8; letter-spacing: .3px; }
			.pill { font: 700 13px Inter, Segoe UI, Arial, sans-serif; }
			.step { font: 800 13px Inter, Segoe UI, Arial, sans-serif; fill: #111827; }
			.footer { font: 700 19px Inter, Segoe UI, Arial, sans-serif; fill: #e2e8f0; }
		</style>
	</defs>

	<rect width="1600" height="980" rx="34" fill="url(#bg)"/>
	<circle cx="1360" cy="85" r="230" fill="#7c3aed" opacity=".08"/>
	<circle cx="95" cy="835" r="260" fill="#14b8a6" opacity=".06"/>

	<g transform="translate(72 66)">
		<rect x="0" y="2" width="10" height="74" rx="5" fill="url(#audioGlow)"/>
		<rect x="15" y="2" width="10" height="74" rx="5" fill="url(#videoGlow)"/>
		<text x="48" y="39" class="title">One musical clock · two coordinated transports</text>
		<text x="49" y="70" class="subtitle">NINJAMplus keeps the music aligned; VDO.Ninja chunked mode keeps the people visible.</text>
	</g>

	<!-- Audio lane -->
	<g transform="translate(72 178)">
		<rect width="1456" height="270" rx="28" fill="#0b1726" stroke="#214358" stroke-width="2" filter="url(#shadow)"/>
		<rect x="0" y="0" width="1456" height="5" rx="3" fill="url(#audioGlow)"/>
		<text x="34" y="47" class="lane" fill="#5eead4">AUDIO · NINJAM INTERVAL PATH</text>

		<g transform="translate(34 74)">
			<rect width="230" height="152" rx="20" fill="#102235" stroke="#28526a"/>
			<circle cx="42" cy="39" r="20" fill="#153d45" stroke="#5eead4" stroke-width="2"/>
			<path d="M34 38c0-8 5-14 8-14s8 6 8 14-5 14-8 14-8-6-8-14Zm-7 1v3c0 9 7 16 15 16s15-7 15-16v-3M42 58v9M32 67h20" fill="none" stroke="#5eead4" stroke-width="3" stroke-linecap="round"/>
			<text x="74" y="37" class="cardTitle">Performer</text>
			<text x="28" y="89" class="cardText">Instrument / mic</text>
			<text x="28" y="116" class="cardText">Headphones strongly</text>
			<text x="28" y="139" class="cardText">recommended</text>
		</g>

		<path d="M277 150 H350" stroke="#5eead4" stroke-width="4" fill="none" marker-end="url(#arrowAudio)"/>

		<g transform="translate(365 74)">
			<rect width="278" height="152" rx="20" fill="#102b38" stroke="#2dd4bf" stroke-width="2"/>
			<text x="25" y="43" class="cardTitle">NINJAMplus</text>
			<text x="25" y="75" class="cardText">Standalone or DAW plug-in</text>
			<rect x="25" y="96" width="98" height="30" rx="15" fill="#153d45"/>
			<text x="74" y="116" text-anchor="middle" class="pill" fill="#99f6e4">encode</text>
			<rect x="133" y="96" width="119" height="30" rx="15" fill="#153d45"/>
			<text x="192" y="116" text-anchor="middle" class="pill" fill="#99f6e4">mix + clock</text>
		</g>

		<path d="M656 150 H729" stroke="#5eead4" stroke-width="4" fill="none" marker-end="url(#arrowAudio)"/>

		<g transform="translate(744 74)">
			<rect width="278" height="152" rx="20" fill="#102235" stroke="#28526a"/>
			<circle cx="44" cy="42" r="20" fill="none" stroke="#67e8f9" stroke-width="2"/>
			<path d="M28 42h32M44 22c7 7 10 13 10 20s-3 13-10 20M44 22c-7 7-10 13-10 20s3 13 10 20" fill="none" stroke="#67e8f9" stroke-width="2"/>
			<text x="78" y="47" class="cardTitle">NINJAM server</text>
			<text x="25" y="83" class="cardText">Tempo + BPI authority</text>
			<text x="25" y="110" class="cardText">Exchanges completed</text>
			<text x="25" y="133" class="cardText">musical intervals</text>
		</g>

		<path d="M1035 150 H1108" stroke="#5eead4" stroke-width="4" fill="none" marker-end="url(#arrowAudio)"/>

		<g transform="translate(1123 74)">
			<rect width="299" height="152" rx="20" fill="#102235" stroke="#28526a"/>
			<text x="25" y="40" class="cardTitle">Remote performer</text>
			<text x="25" y="72" class="cardText">Hears the previous interval</text>
			<g transform="translate(25 93)">
				<rect width="114" height="36" rx="10" fill="#12323f" stroke="#2dd4bf"/>
				<text x="57" y="23" text-anchor="middle" class="pill" fill="#99f6e4">PLAY n</text>
				<path d="M126 18h20" stroke="#5eead4" stroke-width="2" marker-end="url(#arrowAudio)"/>
				<rect x="158" width="116" height="36" rx="10" fill="#12323f" stroke="#2dd4bf"/>
				<text x="216" y="23" text-anchor="middle" class="pill" fill="#99f6e4">HEAR n−1</text>
			</g>
		</g>
	</g>

	<!-- Video lane -->
	<g transform="translate(72 474)">
		<rect width="1456" height="384" rx="28" fill="#151226" stroke="#443062" stroke-width="2" filter="url(#shadow)"/>
		<rect x="0" y="0" width="1456" height="5" rx="3" fill="url(#videoGlow)"/>
		<text x="34" y="47" class="lane" fill="#c4b5fd">VIDEO · VDO.NINJA CHUNKED / WEBCODECS PATH</text>

		<g transform="translate(34 76)">
			<rect width="216" height="194" rx="20" fill="#211936" stroke="#554071"/>
			<circle cx="42" cy="40" r="20" fill="#34234f" stroke="#c4b5fd" stroke-width="2"/>
			<path d="M31 34h20v14H31zM51 38l10-6v18l-10-6z" fill="none" stroke="#ddd6fe" stroke-width="2.5" stroke-linejoin="round"/>
			<text x="74" y="45" class="cardTitle">Browser</text>
			<text x="25" y="83" class="cardText">Camera capture</text>
			<text x="25" y="110" class="cardText">Current Chromium</text>
			<text x="25" y="137" class="cardText">WebCodecs required</text>
			<rect x="25" y="154" width="166" height="26" rx="13" fill="#302149"/>
			<text x="108" y="172" text-anchor="middle" class="pill" fill="#ddd6fe">video only · noaudio</text>
		</g>

		<path d="M262 173 H320" stroke="#c4b5fd" stroke-width="4" fill="none" marker-end="url(#arrowVideo)"/>

		<g transform="translate(335 76)">
			<rect width="236" height="194" rx="20" fill="#211936" stroke="#7c5aa4"/>
			<text x="24" y="42" class="cardTitle">Local helper</text>
			<text x="24" y="74" class="cardText">127.0.0.1 only</text>
			<text x="24" y="101" class="cardText">Embeds VDO.Ninja</text>
			<text x="24" y="128" class="cardText">Applies peer delay</text>
			<rect x="24" y="150" width="188" height="29" rx="14" fill="#3b2856"/>
			<text x="118" y="170" text-anchor="middle" class="pill" fill="#e9d5ff">NINJAM owns buffer</text>
		</g>

		<path d="M583 173 H641" stroke="#c4b5fd" stroke-width="4" fill="none" marker-end="url(#arrowVideo)"/>

		<g transform="translate(656 76)">
			<rect width="510" height="246" rx="22" fill="#25183b" stroke="#a78bfa" stroke-width="2"/>
			<text x="25" y="41" class="cardTitle">Chunked resilience engine</text>
			<text x="25" y="67" class="cardText">WebRTC data channels · paced and recoverable</text>

			<g transform="translate(25 88)">
				<rect width="138" height="58" rx="13" fill="#352253" stroke="#8b5cf6"/>
				<circle cx="20" cy="18" r="11" fill="#c4b5fd"/><text x="20" y="23" text-anchor="middle" class="step">1</text>
				<text x="40" y="22" class="small">Encode</text>
				<text x="14" y="45" class="micro">WebCodecs frame</text>
			</g>
			<path d="M169 117h26" stroke="#c4b5fd" stroke-width="2" marker-end="url(#arrowVideo)"/>
			<g transform="translate(203 88)">
				<rect width="138" height="58" rx="13" fill="#352253" stroke="#8b5cf6"/>
				<circle cx="20" cy="18" r="11" fill="#c4b5fd"/><text x="20" y="23" text-anchor="middle" class="step">2</text>
				<text x="40" y="22" class="small">Index</text>
				<text x="14" y="45" class="micro">4 KiB payloads</text>
			</g>
			<path d="M347 117h26" stroke="#c4b5fd" stroke-width="2" marker-end="url(#arrowVideo)"/>
			<g transform="translate(381 88)">
				<rect width="104" height="58" rx="13" fill="#352253" stroke="#8b5cf6"/>
				<circle cx="20" cy="18" r="11" fill="#c4b5fd"/><text x="20" y="23" text-anchor="middle" class="step">3</text>
				<text x="40" y="22" class="small">Pace</text>
				<text x="14" y="45" class="micro">backpressure</text>
			</g>

			<g transform="translate(25 162)">
				<rect width="214" height="58" rx="13" fill="#352253" stroke="#8b5cf6"/>
				<circle cx="20" cy="18" r="11" fill="#f0abfc"/><text x="20" y="23" text-anchor="middle" class="step">4</text>
				<text x="40" y="22" class="small">NACK + resend cache</text>
				<text x="14" y="45" class="micro">repair gaps before deadline</text>
			</g>
			<g transform="translate(251 162)">
				<rect width="234" height="58" rx="13" fill="#352253" stroke="#8b5cf6"/>
				<circle cx="20" cy="18" r="11" fill="#f0abfc"/><text x="20" y="23" text-anchor="middle" class="step">5</text>
				<text x="40" y="22" class="small">Adapt + recover</text>
				<text x="14" y="45" class="micro">bitrate · frames · resolution</text>
			</g>
		</g>

		<path d="M1178 173 H1236" stroke="#c4b5fd" stroke-width="4" fill="none" marker-end="url(#arrowVideo)"/>

		<g transform="translate(1251 76)">
			<rect width="171" height="194" rx="20" fill="#211936" stroke="#554071"/>
			<text x="20" y="40" class="cardTitle">Remote</text>
			<text x="20" y="67" class="cardTitle">video</text>
			<text x="20" y="105" class="cardText">Deadline-aware</text>
			<text x="20" y="132" class="cardText">playout keeps</text>
			<text x="20" y="159" class="cardText">later frames moving</text>
		</g>

		<!-- NINJAM clock to helper feedback -->
		<path d="M744 -26 V-48 H453 V64" stroke="#fbbf24" stroke-width="3" stroke-dasharray="7 7" fill="none" marker-end="url(#arrowSync)"/>
		<rect x="493" y="-67" width="210" height="35" rx="17" fill="#3d2e1a" stroke="#fbbf24"/>
		<text x="598" y="-44" text-anchor="middle" class="pill" fill="#fde68a">live per-peer delay updates</text>

		<!-- Weak-link callout -->
		<g transform="translate(34 294)">
			<rect width="586" height="60" rx="16" fill="#1c2731" stroke="#65a30d"/>
			<circle cx="30" cy="30" r="16" fill="#365314"/>
			<path d="M22 34l7-8 6 5 7-10" fill="none" stroke="#bef264" stroke-width="3" stroke-linecap="round" stroke-linejoin="round"/>
			<text x="58" y="25" class="small" fill="#d9f99d">WEAK-UPLINK SAFETY NET</text>
			<text x="58" y="46" class="micro">600 kbps start · 60 kbps emergency floor · 360p → 180p · automatic recovery</text>
		</g>
		<g transform="translate(644 294)">
			<rect width="778" height="60" rx="16" fill="#241f34" stroke="#624c80"/>
			<text x="24" y="25" class="small" fill="#e9d5ff">FAIL GRACEFULLY, NOT SILENTLY</text>
			<text x="24" y="46" class="micro">At 200–800 kbps, expect reduced cadence and resolution. NINJAM audio remains separate.</text>
		</g>
	</g>

	<g transform="translate(72 897)">
		<rect width="1456" height="50" rx="16" fill="#101a29" stroke="#26364d"/>
		<circle cx="30" cy="25" r="7" fill="#5eead4" filter="url(#softGlow)"/>
		<text x="51" y="31" class="footer">Audio stays NINJAM-owned</text>
		<circle cx="346" cy="25" r="4" fill="#64748b"/>
		<text x="366" y="31" class="footer">VDO carries video only</text>
		<circle cx="624" cy="25" r="4" fill="#64748b"/>
		<text x="644" y="31" class="footer">The helper keeps both aligned</text>
		<text x="1422" y="31" text-anchor="end" class="small" fill="#94a3b8">NINJAMplus</text>
	</g>
</svg>
